HIERARCHY
ROOT Hips
{
    OFFSET   0.000000   0.000000   0.000000
    CHANNELS 6 Xposition Yposition Zposition Zrotation Xrotation Yrotation
    JOINT Chest
    {
        OFFSET   0.000000   8.007230   0.000000
        CHANNELS 3 Zrotation Xrotation Yrotation
        JOINT Chest2
        {
            OFFSET   0.000000  22.077100   0.000000
            CHANNELS 3 Zrotation Xrotation Yrotation
            JOINT Neck
            {
                OFFSET   0.000000  23.255100   0.000000
                CHANNELS 3 Zrotation Xrotation Yrotation
                JOINT Head
                {
                    OFFSET   0.000000  14.370100   1.956600
                    CHANNELS 3 Zrotation Xrotation Yrotation
                    End Site
                    {
                        OFFSET   0.000000  19.566000   0.000000
                    }
                }
            }
            JOINT LeftCollar
            {
                OFFSET   3.911900  19.017000  -0.467063
                CHANNELS 3 Zrotation Xrotation Yrotation
                JOINT LeftShoulder
                {
                    OFFSET  10.383700   0.000000   0.000000
                    CHANNELS 3 Zrotation Xrotation Yrotation
                    JOINT LeftElbow
                    {
                        OFFSET  26.662100   0.001193   0.000980
                        CHANNELS 3 Zrotation Xrotation Yrotation
                        JOINT LeftWrist
                        {
                            OFFSET  28.869000  -0.000059  -0.000082
                            CHANNELS 3 Zrotation Xrotation Yrotation
                            JOINT LeftFinger0
                            {
                                OFFSET   2.044650  -2.323450   3.252850
                                CHANNELS 3 Zrotation Xrotation Yrotation
                                JOINT LeftFinger01
                                {
                                    OFFSET   3.088130   0.000000   0.000000
                                    CHANNELS 3 Zrotation Xrotation Yrotation
                                    JOINT LeftFinger02
                                    {
                                        OFFSET   2.639460   0.000000   0.000000
                                        CHANNELS 3 Zrotation Xrotation Yrotation
                                        End Site
                                        {
                                            OFFSET   2.582190   0.000000   0.000000
                                        }
                                    }
                                }
                            }
                            JOINT LeftFinger1
                            {
                                OFFSET   8.364480   0.000000   3.252850
                                CHANNELS 3 Zrotation Xrotation Yrotation
                                JOINT LeftFinger11
                                {
                                    OFFSET   4.646930   0.000000   0.000000
                                    CHANNELS 3 Zrotation Xrotation Yrotation
                                    JOINT LeftFinger12
                                    {
                                        OFFSET   2.323470   0.000000   0.000000
                                        CHANNELS 3 Zrotation Xrotation Yrotation
                                        End Site
                                        {
                                            OFFSET   2.273050   0.000000   0.000000
                                        }
                                    }
                                }
                            }
                            JOINT LeftFinger2
                            {
                                OFFSET   8.364490   0.000016   1.078090
                                CHANNELS 3 Zrotation Xrotation Yrotation
                                JOINT LeftFinger21
                                {
                                    OFFSET   5.111610   0.000000   0.000000
                                    CHANNELS 3 Zrotation Xrotation Yrotation
                                    JOINT LeftFinger22
                                    {
                                        OFFSET   2.788150   0.000016   0.000000
                                        CHANNELS 3 Zrotation Xrotation Yrotation
                                        End Site
                                        {
                                            OFFSET   2.727660   0.000000   0.000000
                                        }
                                    }
                                }
                            }
                            JOINT LeftFinger3
                            {
                                OFFSET   7.899780   0.000015  -1.078090
                                CHANNELS 3 Zrotation Xrotation Yrotation
                                JOINT LeftFinger31
                                {
                                    OFFSET   4.646930   0.000000   0.000000
                                    CHANNELS 3 Zrotation Xrotation Yrotation
                                    JOINT LeftFinger32
                                    {
                                        OFFSET   2.323470   0.000000   0.000000
                                        CHANNELS 3 Zrotation Xrotation Yrotation
                                        End Site
                                        {
                                            OFFSET   2.273050   0.000000   0.000000
                                        }
                                    }
                                }
                            }
                            JOINT LeftFinger4
                            {
                                OFFSET   7.435090   0.000000  -3.252850
                                CHANNELS 3 Zrotation Xrotation Yrotation
                                JOINT LeftFinger41
                                {
                                    OFFSET   3.717550   0.000000   0.000000
                                    CHANNELS 3 Zrotation Xrotation Yrotation
                                    JOINT LeftFinger42
                                    {
                                        OFFSET   1.858770   0.000000   0.000000
                                        CHANNELS 3 Zrotation Xrotation Yrotation
                                        End Site
                                        {
                                            OFFSET   1.818440   0.000000   0.000000
                                        }
                                    }
                                }
                            }
                        }
                    }
                }
            }
            JOINT RightCollar
            {
                OFFSET  -3.911910  19.017000  -0.467062
                CHANNELS 3 Zrotation Xrotation Yrotation
                JOINT RightShoulder
                {
                    OFFSET -10.383700   0.000014   0.000000
                    CHANNELS 3 Zrotation Xrotation Yrotation
                    JOINT RightElbow
                    {
                        OFFSET -26.662100   0.001225   0.001091
                        CHANNELS 3 Zrotation Xrotation Yrotation
                        JOINT RightWrist
                        {
                            OFFSET -28.869000  -0.000020  -0.000085
                            CHANNELS 3 Zrotation Xrotation Yrotation
                            JOINT RightFinger0
                            {
                                OFFSET  -2.044650  -2.323490   3.252850
                                CHANNELS 3 Zrotation Xrotation Yrotation
                                JOINT RightFinger01
                                {
                                    OFFSET  -3.088130   0.000000   0.000000
                                    CHANNELS 3 Zrotation Xrotation Yrotation
                                    JOINT RightFinger02
                                    {
                                        OFFSET  -2.639460   0.000000   0.000000
                                        CHANNELS 3 Zrotation Xrotation Yrotation
                                        End Site
                                        {
                                            OFFSET  -2.582190   0.000000   0.000000
                                        }
                                    }
                                }
                            }
                            JOINT RightFinger1
                            {
                                OFFSET  -8.364480   0.000000   3.252850
                                CHANNELS 3 Zrotation Xrotation Yrotation
                                JOINT RightFinger11
                                {
                                    OFFSET  -4.646930   0.000000   0.000000
                                    CHANNELS 3 Zrotation Xrotation Yrotation
                                    JOINT RightFinger12
                                    {
                                        OFFSET  -2.323470   0.000000   0.000000
                                        CHANNELS 3 Zrotation Xrotation Yrotation
                                        End Site
                                        {
                                            OFFSET  -2.273050   0.000000   0.000000
                                        }
                                    }
                                }
                            }
                            JOINT RightFinger2
                            {
                                OFFSET  -8.364480   0.000000   1.078090
                                CHANNELS 3 Zrotation Xrotation Yrotation
                                JOINT RightFinger21
                                {
                                    OFFSET  -5.111620   0.000000   0.000000
                                    CHANNELS 3 Zrotation Xrotation Yrotation
                                    JOINT RightFinger22
                                    {
                                        OFFSET  -2.788160   0.000000   0.000000
                                        CHANNELS 3 Zrotation Xrotation Yrotation
                                        End Site
                                        {
                                            OFFSET  -2.727660   0.000000   0.000000
                                        }
                                    }
                                }
                            }
                            JOINT RightFinger3
                            {
                                OFFSET  -7.899780   0.000000  -1.078090
                                CHANNELS 3 Zrotation Xrotation Yrotation
                                JOINT RightFinger31
                                {
                                    OFFSET  -4.646930   0.000000   0.000000
                                    CHANNELS 3 Zrotation Xrotation Yrotation
                                    JOINT RightFinger32
                                    {
                                        OFFSET  -2.323470   0.000000   0.000000
                                        CHANNELS 3 Zrotation Xrotation Yrotation
                                        End Site
                                        {
                                            OFFSET  -2.273050   0.000000   0.000000
                                        }
                                    }
                                }
                            }
                            JOINT RightFinger4
                            {
                                OFFSET  -7.435090   0.000000  -3.252850
                                CHANNELS 3 Zrotation Xrotation Yrotation
                                JOINT RightFinger41
                                {
                                    OFFSET  -3.717550   0.000000   0.000000
                                    CHANNELS 3 Zrotation Xrotation Yrotation
                                    JOINT RightFinger42
                                    {
                                        OFFSET  -1.858760   0.000000   0.000000
                                        CHANNELS 3 Zrotation Xrotation Yrotation
                                        End Site
                                        {
                                            OFFSET  -1.818440   0.000000   0.000000
                                        }
                                    }
                                }
                            }
                        }
                    }
                }
            }
        }
    }
    JOINT LeftHip
    {
        OFFSET   9.783030   0.000000   0.000000
        CHANNELS 3 Zrotation Xrotation Yrotation
        JOINT LeftKnee
        {
            OFFSET   0.000063 -41.789100   0.000608
            CHANNELS 3 Zrotation Xrotation Yrotation
            JOINT LeftAnkle
            {
                OFFSET   0.000048 -41.133200  -0.000184
                CHANNELS 3 Zrotation Xrotation Yrotation
                JOINT LeftToe
                {
                    OFFSET   0.000000  -6.358960  14.674500
                    CHANNELS 3 Zrotation Xrotation Yrotation
                    End Site
                    {
                        OFFSET   0.000000   0.000000   3.913200
                    }
                }
            }
        }
    }
    JOINT RightHip
    {
        OFFSET  -9.783030   0.000000   0.000000
        CHANNELS 3 Zrotation Xrotation Yrotation
        JOINT RightKnee
        {
            OFFSET   0.000071 -41.789100   0.001239
            CHANNELS 3 Zrotation Xrotation Yrotation
            JOINT RightAnkle
            {
                OFFSET   0.000037 -41.133200  -0.000166
                CHANNELS 3 Zrotation Xrotation Yrotation
                JOINT RightToe
                {
                    OFFSET   0.000000  -6.358960  14.674500
                    CHANNELS 3 Zrotation Xrotation Yrotation
                    End Site
                    {
                        OFFSET   0.000000   0.000000   3.913200
                    }
                }
            }
        }
    }
}
MOTION
Frames: 4
Frame Time:   0.016667
  0.650212  89.501000   1.468730  -3.818590  -8.201710  -6.713760   1.456530   4.661330   0.733902   2.867170   9.339560   1.354990   0.697328   0.962194  -0.012925   1.148840   1.950010   2.825890  -3.832310   0.732534   1.627800 -76.016200  21.156900  -5.339030  -1.084970  -9.629470 -19.844000  18.019600 -16.674300  10.938300  39.488100  37.369200 -65.192400 -35.810100   0.001037   0.002911 -12.905000   0.001460  -0.009183 -35.414600   5.153660  -7.199820 -29.239700  -0.002667  -0.004510 -20.467800  -0.000707   0.002978 -28.600000  -2.488640   4.553000 -38.976200   0.006656   0.014339 -25.958100   0.002164   0.010837 -28.452200  -2.476730   4.559400 -36.716800  -0.001342   0.010081 -24.453400   0.003100   0.003888 -34.892900  -2.970910   4.253580 -52.501000  -0.002716  -0.002894 -34.965700   0.009901   0.000564   7.017400  -0.112725   4.370460  72.655500  13.659800  -1.794220   1.442290 -10.147200  11.302700 -16.149700   0.002883   0.867221 -36.000300  23.148900  62.435800  26.512000   0.004765  -0.002342   8.256000   0.000000   0.000502  30.084700   5.176030   8.851390  24.942700  -0.000847  -0.005330  17.459900  -0.000238  -0.000124  28.416700   3.128130   5.759350  37.030900  -0.003362  -0.004358  24.662500  -0.001344  -0.000351  27.900300   1.878720   3.543210  31.729900  -0.002976  -0.001665  21.132100  -0.003024  -0.000233  35.555000   0.102563   0.150827  53.332700  -0.002402  -0.006386  35.519600  -0.001236  -0.002201   1.625260  12.136900   4.130100   0.913733   0.342245   8.582180  -1.146830  -4.870580   2.919560   0.000000   0.000000  -0.000000   3.028270  11.132200  -5.369290   0.093705   1.174630  -5.389710  -1.483820  -4.570310   0.733861   0.000000   0.000000   0.000000
  0.673901  89.500700   1.461170  -3.824880  -8.251470  -6.679330   1.475540   4.693960   0.715189   2.907310   9.404550   1.315040   0.697655   0.977293  -0.012959   1.148450   1.980940   2.806040  -3.883400   0.801154   1.687230 -75.852700  21.281000  -5.531340  -1.290640  -9.983520 -20.717200  18.161300 -16.839600  11.285100  40.144200  38.019100 -65.527000 -35.565600   0.001047   0.002909 -12.782800   0.001462  -0.009188 -35.362500   5.209810  -7.296640 -29.196700  -0.002658  -0.004503 -20.437600  -0.000710   0.002997 -28.600400  -2.382830   4.358210 -38.803400   0.006680   0.014357 -25.843000   0.002162   0.010883 -28.442400  -2.370740   4.364730 -36.488000  -0.001329   0.010109 -24.301000   0.003097   0.003864 -34.830400  -2.840390   4.074380 -52.391400  -0.002719  -0.002877 -34.892700   0.009898   0.000715   6.986460  -0.126347   4.428510  72.660400  13.660900  -1.792420   1.455400 -10.129600  11.318100 -16.148800   0.010097   0.880598 -35.992500  23.186200  62.488000  26.534400   0.004765  -0.002311   8.267170   0.000000   0.000488  30.102400   5.176140   8.845070  24.957000  -0.000846  -0.005336  17.469900  -0.000238  -0.000123  28.417900   3.122340   5.748230  37.055500  -0.003361  -0.004359  24.678900  -0.001344  -0.000350  27.901600   1.870270   3.526920  31.743300  -0.002977  -0.001665  21.141000  -0.003023  -0.000233  35.570900   0.102460   0.145410  53.356500  -0.002402  -0.006391  35.535500  -0.001235  -0.002201   1.628940  12.176900   4.122550   0.904663   0.335215   8.566200  -1.148370  -4.853760   2.905210  -0.000000   0.000000  -0.000000   3.028540  11.181600  -5.370210   0.094502   1.174640  -5.433440  -1.472470  -4.569670   0.740516  -0.000000   0.000000   0.000000
  0.707182  89.500400   1.447400  -3.835440  -8.351220  -6.609760   1.501740   4.756870   0.682839   2.961740   9.529830   1.246340   0.699923   0.999540  -0.013024   1.151120   2.026350   2.756200  -3.954580   0.911710   1.791460 -75.482300  21.401500  -5.823620  -1.580650 -10.273700 -22.397500  18.415700 -17.092500  11.795100  41.300800  39.161700 -66.297100 -35.145200   0.001057   0.002906 -12.572600   0.001463  -0.009196 -35.279900   5.379770  -7.556290 -29.153600  -0.002635  -0.004485 -20.407500  -0.000717   0.003039 -28.603900  -2.147040   3.925250 -38.526400   0.006732   0.014395 -25.658600   0.002157   0.010981 -28.432000  -2.135250   3.931650 -36.148700  -0.001298   0.010168 -24.075000   0.003089   0.003816 -34.725200  -2.553050   3.673810 -52.202400  -0.002728  -0.002837 -34.766800   0.009890   0.000866   6.943650  -0.148001   4.533460  72.665000  13.669100  -1.779780   1.486280 -10.111900  11.333500 -16.142600   0.034383   0.893975 -35.968300  23.233100  62.565200  26.582400   0.004765  -0.002280   8.291180   0.000000   0.000464  30.122200   5.176350   8.838760  24.973000  -0.000845  -0.005351  17.481100  -0.000240  -0.000123  28.419900   3.112470   5.729470  37.080000  -0.003360  -0.004360  24.695200  -0.001343  -0.000349  27.903500   1.856600   3.500790  31.756600  -0.002978  -0.001664  21.149900  -0.003022  -0.000234  35.592700   0.102289   0.137983  53.389200  -0.002403  -0.006405  35.557200  -0.001233  -0.002201   1.636220  12.257900   4.105880   0.890732   0.322889   8.532270  -1.150660  -4.822690   2.879690   0.000000   0.000000  -0.000000   3.030540  11.279800  -5.372070   0.095369   1.175090  -5.509980  -1.453350  -4.569020   0.747170  -0.000000   0.000000   0.000000
  0.721855  89.502200   1.433930  -3.844130  -8.465120  -6.531200   1.511340   4.825290   0.650591   2.982560   9.665930   1.179740   0.710126   1.009420  -0.013092   1.167870   2.046040   2.695110  -3.982690   0.998169   1.898240 -74.975500  21.385100  -5.998720  -1.702100 -10.002500 -24.202900  19.138000 -17.214600  12.061000  42.443700  40.348300 -67.421000 -34.752200   0.001056   0.002921 -12.376100   0.001460  -0.009199 -35.235600   5.717690  -8.035230 -29.162100  -0.002598  -0.004460 -20.413400  -0.000725   0.003097 -28.612900  -1.789930   3.271780 -38.319400   0.006800   0.014450 -25.520800   0.002148   0.011117 -28.434400  -1.779840   3.277260 -35.942000  -0.001252   0.010249 -23.937300   0.003077   0.003752 -34.606500  -2.123580   3.065580 -51.994400  -0.002744  -0.002778 -34.628200   0.009878  -0.000314   6.926710  -0.162953   4.643990  72.660900  13.754400  -1.745540   1.532640 -10.135500  11.314000 -16.117200   0.079181   0.883373 -35.919200  23.233500  62.604300  26.650100   0.004766  -0.002292   8.325040   0.000000   0.000445  30.124600   5.176620   8.838990  24.975000  -0.000848  -0.005371  17.482500  -0.000243  -0.000122  28.422000   3.101930   5.710000  37.077400  -0.003360  -0.004361  24.693500  -0.001343  -0.000348  27.903400   1.844170   3.477690  31.745800  -0.002977  -0.001665  21.142600  -0.003022  -0.000237  35.600300   0.102117   0.135358  53.400700  -0.002403  -0.006425  35.564800  -0.001230  -0.002199   1.644210  12.352900   4.082180   0.881618   0.311115   8.492480  -1.151490  -4.791720   2.857710  -0.000000   0.000000  -0.000000   3.035330  11.390500  -5.378170   0.094602   1.175730  -5.576190  -1.437860  -4.572950   0.735082  -0.000000   0.000000  -0.000000
